# xmcd
#
# Track frame offsets:
# 150
# 15670
# 35735
# 52783
# 65948
# 81174
# 106035
# 122642
# 136877
# 153118
# 167069
# 184331
# 195905
# 215259
# 228411
#
# Disc length: 3244 seconds
#
#
# Revision: 0
# Processed by: cddbd v1.5.2PL0 Copyright (c) Steve Scherf et al.
# Submitted via: FreeRIP 2.945 
#
DISCID=c00caa0f
DTITLE=VITOR E LÉU  - AO VIVO
DYEAR=2007
DGENRE=SERTANEJO
TTITLE0=VITOR E LÉU - SINTO FALTA DE VOCÊ
TTITLE1=VITOR E LÉU - QUEM DE NÓS DOIS
TTITLE2=VITOR E LÉU - FADA
TTITLE3=VITOR E LÉU - TELEFONE MUDO
TTITLE4=VITOR E LÉU - JOGO DA VIDA
TTITLE5=VITOR E LÉU - POUT-PORRI
TTITLE6=VITOR E LÉU - O GRANFINO E O CAIPIRA
TTITLE7=VITOR E LÉU - VIDA BOA
TTITLE8=VITOR E LÉU - AMIGO APAIXONADO
TTITLE9=VITOR E LÉU - ARAPUCA
TTITLE10=VITOR E LÉU - LEMBRANÇAS DE AMOR
TTITLE11=VITOR E LÉU - CHUVA DE BRUXARIA
TTITLE12=VITOR E LÉU - MEU EU EM VOCÊ
TTITLE13=VITOR E LÉU - CUIDADOR DO FOGO
TTITLE14=VITOR E LÉU - MILONGA PARA MISSÕES
EXTD=AURORA FM - NOVA AURORA
EXTT0=
EXTT1=
EXTT2=
EXTT3=
EXTT4=
EXTT5=
EXTT6=
EXTT7=
EXTT8=
EXTT9=
EXTT10=
EXTT11=
EXTT12=
EXTT13=
EXTT14=
PLAYORDER=
